Nunito-light-master.ufo
<glyph name="quotedbl" format="1">
  <advance width="633"/>
  <unicode hex="0022"/>
  <outline>
    <contour>
      <point x="179" y="994" type="curve" smooth="yes"/>
      <point x="204" y="994"/>
      <point x="230" y="1009"/>
      <point x="234" y="1059" type="curve" smooth="yes"/>
      <point x="261" y="1414" type="line" smooth="yes"/>
      <point x="264" y="1458"/>
      <point x="221" y="1480"/>
      <point x="180" y="1480" type="curve" smooth="yes"/>
      <point x="137" y="1480"/>
      <point x="94" y="1459"/>
      <point x="98" y="1408" type="curve" smooth="yes"/>
      <point x="125" y="1059" type="line" smooth="yes"/>
      <point x="129" y="1008"/>
      <point x="154" y="994"/>
    </contour>
    <contour>
      <point x="446" y="994" type="curve" smooth="yes"/>
      <point x="471" y="994"/>
      <point x="497" y="1007"/>
      <point x="501" y="1059" type="curve" smooth="yes"/>
      <point x="528" y="1414" type="line" smooth="yes"/>
      <point x="531" y="1456"/>
      <point x="488" y="1480"/>
      <point x="447" y="1480" type="curve" smooth="yes"/>
      <point x="406" y="1480"/>
      <point x="362" y="1457"/>
      <point x="365" y="1414" type="curve" smooth="yes"/>
      <point x="392" y="1059" type="line" smooth="yes"/>
      <point x="396" y="1010"/>
      <point x="419" y="994"/>
    </contour>
  </outline>
</glyph>
<glyph name="percent" format="1">
  <advance width="2060"/>
  <unicode hex="0025"/>
  <outline>
    <contour>
      <point x="601" y="-71" type="curve" smooth="yes"/>
      <point x="620" y="-71"/>
      <point x="637" y="-63"/>
      <point x="649" y="-42" type="curve" smooth="yes"/>
      <point x="1440" y="1347" type="line" smooth="yes"/>
      <point x="1446" y="1358"/>
      <point x="1449" y="1369"/>
      <point x="1449" y="1380" type="curve" smooth="yes"/>
      <point x="1449" y="1412"/>
      <point x="1424" y="1437"/>
      <point x="1395" y="1437" type="curve" smooth="yes"/>
      <point x="1376" y="1437"/>
      <point x="1354" y="1426"/>
      <point x="1339" y="1399" type="curve" smooth="yes"/>
      <point x="549" y="9" type="line" smooth="yes"/>
      <point x="544" y="0"/>
      <point x="541" y="-9"/>
      <point x="541" y="-17" type="curve" smooth="yes"/>
      <point x="541" y="-48"/>
      <point x="570" y="-71"/>
    </contour>
    <contour>
      <point x="557" y="740" type="curve" smooth="yes"/>
      <point x="410" y="740"/>
      <point x="358" y="883"/>
      <point x="358" y="1020" type="curve" smooth="yes"/>
      <point x="358" y="1156"/>
      <point x="410" y="1299"/>
      <point x="557" y="1299" type="curve" smooth="yes"/>
      <point x="705" y="1299"/>
      <point x="757" y="1156"/>
      <point x="757" y="1020" type="curve" smooth="yes"/>
      <point x="757" y="883"/>
      <point x="705" y="740"/>
    </contour>
    <contour>
      <point x="557" y="637" type="curve" smooth="yes"/>
      <point x="768" y="637"/>
      <point x="893" y="812"/>
      <point x="893" y="1020" type="curve" smooth="yes"/>
      <point x="893" y="1213"/>
      <point x="784" y="1403"/>
      <point x="557" y="1403" type="curve" smooth="yes"/>
      <point x="346" y="1403"/>
      <point x="223" y="1228"/>
      <point x="223" y="1020" type="curve" smooth="yes"/>
      <point x="223" y="808"/>
      <point x="345" y="637"/>
    </contour>
    <contour>
      <point x="1502" y="73" type="curve" smooth="yes"/>
      <point x="1353" y="73"/>
      <point x="1303" y="216"/>
      <point x="1303" y="353" type="curve" smooth="yes"/>
      <point x="1303" y="489"/>
      <point x="1353" y="632"/>
      <point x="1502" y="632" type="curve" smooth="yes"/>
      <point x="1650" y="632"/>
      <point x="1701" y="489"/>
      <point x="1701" y="353" type="curve" smooth="yes"/>
      <point x="1701" y="216"/>
      <point x="1650" y="73"/>
    </contour>
    <contour>
      <point x="1502" y="-31" type="curve" smooth="yes"/>
      <point x="1714" y="-31"/>
      <point x="1837" y="146"/>
      <point x="1837" y="353" type="curve" smooth="yes"/>
      <point x="1837" y="546"/>
      <point x="1729" y="735"/>
      <point x="1502" y="735" type="curve" smooth="yes"/>
      <point x="1292" y="735"/>
      <point x="1167" y="560"/>
      <point x="1167" y="353" type="curve" smooth="yes"/>
      <point x="1167" y="143"/>
      <point x="1289" y="-31"/>
    </contour>
  </outline>
</glyph>
<glyph name="asterisk" format="1">
  <advance width="1105"/>
  <unicode hex="002A"/>
  <outline>
    <contour>
      <point x="434" y="768" type="curve" smooth="yes"/>
      <point x="551" y="979" type="line"/>
      <point x="669" y="768" type="line" smooth="yes"/>
      <point x="713" y="687"/>
      <point x="814" y="765"/>
      <point x="778" y="830" type="curve" smooth="yes"/>
      <point x="652" y="1034" type="line"/>
      <point x="898" y="1025" type="line" smooth="yes"/>
      <point x="984" y="1025"/>
      <point x="984" y="1148"/>
      <point x="898" y="1148" type="curve" smooth="yes"/>
      <point x="654" y="1139" type="line"/>
      <point x="781" y="1343" type="line"/>
      <point x="816" y="1406"/>
      <point x="725" y="1488"/>
      <point x="670" y="1405" type="curve" smooth="yes"/>
      <point x="551" y="1189" type="line"/>
      <point x="432" y="1405" type="line" smooth="yes"/>
      <point x="386" y="1485"/>
      <point x="282" y="1409"/>
      <point x="322" y="1343" type="curve" smooth="yes"/>
      <point x="448" y="1139" type="line"/>
      <point x="207" y="1148" type="line" smooth="yes"/>
      <point x="121" y="1148"/>
      <point x="122" y="1025"/>
      <point x="207" y="1025" type="curve" smooth="yes"/>
      <point x="451" y="1034" type="line"/>
      <point x="324" y="830" type="line" smooth="yes"/>
      <point x="284" y="767"/>
      <point x="388" y="688"/>
    </contour>
  </outline>
</glyph>
<glyph name="P" format="1">
  <advance width="1201"/>
  <unicode hex="0050"/>
  <outline>
    <contour>
      <point x="267" y="0" type="curve" smooth="yes"/>
      <point x="311" y="0"/>
      <point x="356" y="27"/>
      <point x="356" y="84" type="curve" smooth="yes"/>
      <point x="356" y="628" type="line"/>
      <point x="669" y="628" type="line" smooth="yes"/>
      <point x="962" y="628"/>
      <point x="1182" y="722"/>
      <point x="1182" y="1026" type="curve" smooth="yes"/>
      <point x="1182" y="1324"/>
      <point x="993" y="1426"/>
      <point x="684" y="1426" type="curve" smooth="yes"/>
      <point x="268" y="1426" type="line" smooth="yes"/>
      <point x="217" y="1426"/>
      <point x="178" y="1387"/>
      <point x="178" y="1339" type="curve" smooth="yes"/>
      <point x="178" y="84" type="line" smooth="yes"/>
      <point x="178" y="28"/>
      <point x="222" y="0"/>
    </contour>
    <contour>
      <point x="356" y="764" type="line"/>
      <point x="356" y="1285" type="line"/>
      <point x="684" y="1285" type="line" smooth="yes"/>
      <point x="914" y="1285"/>
      <point x="1008" y="1210"/>
      <point x="1008" y="1026" type="curve" smooth="yes"/>
      <point x="1008" y="838"/>
      <point x="901" y="764"/>
      <point x="670" y="764" type="curve" smooth="yes"/>
    </contour>
    <contour>
      <point x="641" y="1438" type="move" name="top"/>
    </contour>
  </outline>
</glyph>
<glyph name="a" format="1">
  <advance width="1053"/>
  <unicode hex="0061"/>
  <outline>
    <contour>
      <point x="439" y="-20" type="curve" smooth="yes"/>
      <point x="611" y="-20"/>
      <point x="703" y="71"/>
      <point x="758" y="187" type="curve"/>
      <point x="758" y="68" type="line" smooth="yes"/>
      <point x="758" y="-29"/>
      <point x="916" y="-21"/>
      <point x="916" y="71" type="curve" smooth="yes"/>
      <point x="916" y="673" type="line" smooth="yes"/>
      <point x="916" y="912"/>
      <point x="763" y="1013"/>
      <point x="532" y="1013" type="curve" smooth="yes"/>
      <point x="375" y="1013"/>
      <point x="255" y="979"/>
      <point x="161" y="922" type="curve" smooth="yes"/>
      <point x="106" y="888"/>
      <point x="161" y="798"/>
      <point x="219" y="827" type="curve" smooth="yes"/>
      <point x="303" y="866"/>
      <point x="392" y="904"/>
      <point x="528" y="904" type="curve" smooth="yes"/>
      <point x="664" y="904"/>
      <point x="758" y="841"/>
      <point x="758" y="688" type="curve" smooth="yes"/>
      <point x="758" y="569" type="line"/>
      <point x="254" y="569"/>
      <point x="86" y="524"/>
      <point x="86" y="268" type="curve" smooth="yes"/>
      <point x="86" y="78"/>
      <point x="235" y="-20"/>
    </contour>
    <contour>
      <point x="458" y="87" type="curve"/>
      <point x="329" y="87"/>
      <point x="238" y="140"/>
      <point x="238" y="274" type="curve" smooth="yes"/>
      <point x="238" y="440"/>
      <point x="337" y="475"/>
      <point x="758" y="475" type="curve"/>
      <point x="758" y="443" type="line" smooth="yes"/>
      <point x="758" y="229"/>
      <point x="612" y="87"/>
    </contour>
    <contour>
      <point x="833" y="9" type="move" name="ogonek"/>
    </contour>
    <contour>
      <point x="524" y="991" type="move" name="top"/>
    </contour>
  </outline>
</glyph>
<glyph name="f" format="1">
  <advance width="687"/>
  <unicode hex="0066"/>
  <outline>
    <contour>
      <point x="320" y="0" type="curve" smooth="yes"/>
      <point x="361" y="0"/>
      <point x="401" y="27"/>
      <point x="401" y="79" type="curve" smooth="yes"/>
      <point x="401" y="876" type="line"/>
      <point x="581" y="876" type="line" smooth="yes"/>
      <point x="624" y="876"/>
      <point x="637" y="897"/>
      <point x="637" y="928" type="curve" smooth="yes"/>
      <point x="637" y="957"/>
      <point x="624" y="981"/>
      <point x="581" y="981" type="curve" smooth="yes"/>
      <point x="401" y="981" type="line"/>
      <point x="401" y="1053" type="line" smooth="yes"/>
      <point x="401" y="1285"/>
      <point x="435" y="1318"/>
      <point x="547" y="1318" type="curve" smooth="yes"/>
      <point x="632" y="1318" type="line" smooth="yes"/>
      <point x="709" y="1318"/>
      <point x="706" y="1438"/>
      <point x="633" y="1438" type="curve" smooth="yes"/>
      <point x="513" y="1438" type="line" smooth="yes"/>
      <point x="360" y="1438"/>
      <point x="241" y="1371"/>
      <point x="241" y="1112" type="curve" smooth="yes"/>
      <point x="241" y="981" type="line"/>
      <point x="101" y="981" type="line" smooth="yes"/>
      <point x="58" y="981"/>
      <point x="42" y="957"/>
      <point x="42" y="928" type="curve" smooth="yes"/>
      <point x="42" y="899"/>
      <point x="58" y="876"/>
      <point x="101" y="876" type="curve" smooth="yes"/>
      <point x="241" y="876" type="line"/>
      <point x="241" y="79" type="line" smooth="yes"/>
      <point x="241" y="26"/>
      <point x="281" y="0"/>
    </contour>
  </outline>
</glyph>
<glyph name="h" format="1">
  <advance width="1134"/>
  <unicode hex="0068"/>
  <outline>
    <contour>
      <point x="227" y="0" type="curve" smooth="yes"/>
      <point x="267" y="0"/>
      <point x="308" y="25"/>
      <point x="308" y="76" type="curve" smooth="yes"/>
      <point x="308" y="575" type="line" smooth="yes"/>
      <point x="308" y="790"/>
      <point x="448" y="889"/>
      <point x="612" y="889" type="curve" smooth="yes"/>
      <point x="749" y="889"/>
      <point x="836" y="814"/>
      <point x="836" y="645" type="curve" smooth="yes"/>
      <point x="836" y="76" type="line" smooth="yes"/>
      <point x="836" y="25"/>
      <point x="875" y="0"/>
      <point x="915" y="0" type="curve" smooth="yes"/>
      <point x="955" y="0"/>
      <point x="996" y="25"/>
      <point x="996" y="76" type="curve" smooth="yes"/>
      <point x="996" y="633" type="line" smooth="yes"/>
      <point x="996" y="907"/>
      <point x="832" y="1013"/>
      <point x="641" y="1013" type="curve" smooth="yes"/>
      <point x="502" y="1013"/>
      <point x="361" y="948"/>
      <point x="308" y="825" type="curve"/>
      <point x="308" y="1352" type="line" smooth="yes"/>
      <point x="308" y="1401"/>
      <point x="269" y="1425"/>
      <point x="229" y="1425" type="curve" smooth="yes"/>
      <point x="189" y="1425"/>
      <point x="148" y="1400"/>
      <point x="148" y="1352" type="curve" smooth="yes"/>
      <point x="148" y="76" type="line" smooth="yes"/>
      <point x="148" y="25"/>
      <point x="187" y="0"/>
    </contour>
    <contour>
      <point x="655" y="1171" type="move" name="top"/>
    </contour>
  </outline>
</glyph>
<glyph name="i" format="1">
  <advance width="455"/>
  <unicode hex="0069"/>
  <outline>
    <contour>
      <point x="235" y="0" type="curve" smooth="yes"/>
      <point x="275" y="0"/>
      <point x="317" y="28"/>
      <point x="317" y="81" type="curve" smooth="yes"/>
      <point x="317" y="911" type="line" smooth="yes"/>
      <point x="317" y="964"/>
      <point x="277" y="991"/>
      <point x="238" y="991" type="curve" smooth="yes"/>
      <point x="198" y="991"/>
      <point x="157" y="964"/>
      <point x="157" y="911" type="curve" smooth="yes"/>
      <point x="157" y="81" type="line" smooth="yes"/>
      <point x="157" y="25"/>
      <point x="195" y="0"/>
    </contour>
    <contour>
      <point x="236" y="1234" type="curve" smooth="yes"/>
      <point x="301" y="1234"/>
      <point x="345" y="1275"/>
      <point x="345" y="1336" type="curve" smooth="yes"/>
      <point x="345" y="1397"/>
      <point x="302" y="1438"/>
      <point x="237" y="1438" type="curve" smooth="yes"/>
      <point x="172" y="1438"/>
      <point x="128" y="1397"/>
      <point x="128" y="1336" type="curve" smooth="yes"/>
      <point x="128" y="1275"/>
      <point x="171" y="1234"/>
    </contour>
    <contour>
      <point x="236" y="9" type="move" name="ogonek"/>
    </contour>
  </outline>
</glyph>
<glyph name="j" format="1">
  <advance width="485"/>
  <unicode hex="006A"/>
  <outline>
    <contour>
      <point x="17" y="-377" type="curve" smooth="yes"/>
      <point x="321" y="-377"/>
      <point x="336" y="-282"/>
      <point x="336" y="-33" type="curve" smooth="yes"/>
      <point x="336" y="911" type="line" smooth="yes"/>
      <point x="336" y="964"/>
      <point x="296" y="991"/>
      <point x="257" y="991" type="curve" smooth="yes"/>
      <point x="216" y="991"/>
      <point x="175" y="964"/>
      <point x="175" y="911" type="curve" smooth="yes"/>
      <point x="175" y="-72" type="line" smooth="yes"/>
      <point x="175" y="-236"/>
      <point x="157" y="-251"/>
      <point x="17" y="-251" type="curve" smooth="yes"/>
      <point x="-60" y="-251"/>
      <point x="-62" y="-377"/>
    </contour>
    <contour>
      <point x="252" y="1234" type="curve" smooth="yes"/>
      <point x="317" y="1234"/>
      <point x="361" y="1275"/>
      <point x="361" y="1336" type="curve" smooth="yes"/>
      <point x="361" y="1397"/>
      <point x="318" y="1438"/>
      <point x="253" y="1438" type="curve" smooth="yes"/>
      <point x="188" y="1438"/>
      <point x="144" y="1397"/>
      <point x="144" y="1336" type="curve" smooth="yes"/>
      <point x="144" y="1275"/>
      <point x="187" y="1234"/>
    </contour>
  </outline>
</glyph>
<glyph name="k" format="1">
  <advance width="969.029"/>
  <unicode hex="006B"/>
  <outline>
    <contour>
      <point x="785" y="26" type="line" smooth="yes"/>
      <point x="852" y="-46"/>
      <point x="956" y="53"/>
      <point x="892" y="120" type="curve" smooth="yes"/>
      <point x="482" y="554" type="line"/>
      <point x="863" y="889" type="line" smooth="yes"/>
      <point x="931" y="949"/>
      <point x="834" y="1044"/>
      <point x="773" y="991" type="curve" smooth="yes"/>
      <point x="308" y="574" type="line"/>
      <point x="308" y="536" type="line"/>
    </contour>
    <contour>
      <point x="226" y="0" type="curve" smooth="yes"/>
      <point x="267" y="0"/>
      <point x="308" y="28"/>
      <point x="308" y="81" type="curve" smooth="yes"/>
      <point x="308" y="1345" type="line" smooth="yes"/>
      <point x="308" y="1398"/>
      <point x="268" y="1425"/>
      <point x="229" y="1425" type="curve" smooth="yes"/>
      <point x="189" y="1425"/>
      <point x="148" y="1398"/>
      <point x="148" y="1345" type="curve" smooth="yes"/>
      <point x="148" y="81" type="line" smooth="yes"/>
      <point x="148" y="25"/>
      <point x="187" y="0"/>
    </contour>
    <contour>
      <point x="509" y="0" type="move" name="bot"/>
    </contour>
  </outline>
</glyph>
<glyph name="n" format="1">
  <advance width="1134"/>
  <unicode hex="006E"/>
  <outline>
    <contour>
      <point x="227" y="0" type="curve" smooth="yes"/>
      <point x="267" y="0"/>
      <point x="308" y="26"/>
      <point x="308" y="75" type="curve" smooth="yes"/>
      <point x="308" y="598" type="line"/>
      <point x="321" y="795"/>
      <point x="442" y="903"/>
      <point x="598" y="903" type="curve" smooth="yes"/>
      <point x="755" y="903"/>
      <point x="836" y="806"/>
      <point x="836" y="626" type="curve" smooth="yes"/>
      <point x="836" y="75" type="line" smooth="yes"/>
      <point x="836" y="24"/>
      <point x="876" y="0"/>
      <point x="916" y="0" type="curve" smooth="yes"/>
      <point x="956" y="0"/>
      <point x="996" y="24"/>
      <point x="996" y="75" type="curve" smooth="yes"/>
      <point x="996" y="624" type="line" smooth="yes"/>
      <point x="996" y="897"/>
      <point x="852" y="1013"/>
      <point x="635" y="1013" type="curve" smooth="yes"/>
      <point x="486" y="1013"/>
      <point x="356" y="944"/>
      <point x="308" y="814" type="curve"/>
      <point x="308" y="917" type="line" smooth="yes"/>
      <point x="308" y="966"/>
      <point x="268" y="990"/>
      <point x="229" y="990" type="curve" smooth="yes"/>
      <point x="189" y="990"/>
      <point x="148" y="966"/>
      <point x="148" y="915" type="curve" smooth="yes"/>
      <point x="148" y="75" type="line" smooth="yes"/>
      <point x="148" y="24"/>
      <point x="187" y="0"/>
    </contour>
    <contour>
      <point x="570" y="0" type="move" name="bot"/>
    </contour>
    <contour>
      <point x="605" y="1001" type="move" name="top"/>
    </contour>
  </outline>
</glyph>
<glyph name="s" format="1">
  <advance width="945"/>
  <unicode hex="0073"/>
  <outline>
    <contour>
      <point x="497" y="-20" type="curve" smooth="yes"/>
      <point x="722" y="-20"/>
      <point x="874" y="79"/>
      <point x="865" y="302" type="curve" smooth="yes"/>
      <point x="860" y="414"/>
      <point x="804" y="513"/>
      <point x="609" y="565" type="curve" smooth="yes"/>
      <point x="444" y="609" type="line" smooth="yes"/>
      <point x="310" y="645"/>
      <point x="277" y="667"/>
      <point x="277" y="754" type="curve" smooth="yes"/>
      <point x="277" y="853"/>
      <point x="366" y="901"/>
      <point x="503" y="901" type="curve" smooth="yes"/>
      <point x="615" y="901"/>
      <point x="706" y="854"/>
      <point x="749" y="837" type="curve" smooth="yes"/>
      <point x="822" y="809"/>
      <point x="850" y="903"/>
      <point x="792" y="937" type="curve" smooth="yes"/>
      <point x="742" y="966"/>
      <point x="628" y="1013"/>
      <point x="496" y="1013" type="curve" smooth="yes"/>
      <point x="312" y="1013"/>
      <point x="129" y="943"/>
      <point x="131" y="740" type="curve" smooth="yes"/>
      <point x="133" y="564"/>
      <point x="241" y="521"/>
      <point x="406" y="477" type="curve" smooth="yes"/>
      <point x="575" y="432" type="line" smooth="yes"/>
      <point x="686" y="403"/>
      <point x="725" y="359"/>
      <point x="729" y="283" type="curve" smooth="yes"/>
      <point x="735" y="155"/>
      <point x="634" y="92"/>
      <point x="502" y="92" type="curve" smooth="yes"/>
      <point x="392" y="92"/>
      <point x="297" y="131"/>
      <point x="227" y="178" type="curve" smooth="yes"/>
      <point x="155" y="226"/>
      <point x="104" y="134"/>
      <point x="163" y="87" type="curve" smooth="yes"/>
      <point x="227" y="36"/>
      <point x="361" y="-20"/>
    </contour>
    <contour>
      <point x="513" y="0" type="move" name="bot"/>
    </contour>
    <contour>
      <point x="492" y="1002" type="move" name="top"/>
    </contour>
  </outline>
</glyph>
<glyph name="u" format="1">
  <advance width="1134"/>
  <unicode hex="0075"/>
  <outline>
    <contour>
      <point x="499" y="-20" type="curve" smooth="yes"/>
      <point x="648" y="-20"/>
      <point x="778" y="49"/>
      <point x="826" y="179" type="curve"/>
      <point x="826" y="73" type="line" smooth="yes"/>
      <point x="826" y="24"/>
      <point x="866" y="0"/>
      <point x="905" y="0" type="curve" smooth="yes"/>
      <point x="945" y="0"/>
      <point x="986" y="24"/>
      <point x="986" y="75" type="curve" smooth="yes"/>
      <point x="986" y="916" type="line" smooth="yes"/>
      <point x="986" y="967"/>
      <point x="947" y="991"/>
      <point x="907" y="991" type="curve" smooth="yes"/>
      <point x="867" y="991"/>
      <point x="826" y="965"/>
      <point x="826" y="916" type="curve" smooth="yes"/>
      <point x="826" y="395" type="line"/>
      <point x="813" y="198"/>
      <point x="690" y="90"/>
      <point x="534" y="90" type="curve" smooth="yes"/>
      <point x="377" y="90"/>
      <point x="298" y="187"/>
      <point x="298" y="367" type="curve" smooth="yes"/>
      <point x="298" y="916" type="line" smooth="yes"/>
      <point x="298" y="967"/>
      <point x="258" y="991"/>
      <point x="218" y="991" type="curve" smooth="yes"/>
      <point x="178" y="991"/>
      <point x="138" y="967"/>
      <point x="138" y="916" type="curve" smooth="yes"/>
      <point x="138" y="369" type="line" smooth="yes"/>
      <point x="138" y="96"/>
      <point x="286" y="-20"/>
    </contour>
    <contour>
      <point x="902" y="19" type="move" name="ogonek"/>
    </contour>
    <contour>
      <point x="560" y="1001" type="move" name="top"/>
    </contour>
  </outline>
</glyph>
<glyph name="v" format="1">
  <advance width="1019.697"/>
  <unicode hex="0076"/>
  <outline>
    <contour>
      <point x="510" y="0" type="curve"/>
      <point x="510" y="166" type="line"/>
      <point x="192" y="940" type="line" smooth="yes"/>
      <point x="148" y="1049"/>
      <point x="18" y="964"/>
      <point x="49" y="890" type="curve" smooth="yes"/>
      <point x="374" y="121" type="line" smooth="yes"/>
      <point x="410" y="36"/>
      <point x="439" y="0"/>
    </contour>
    <contour>
      <point x="510" y="0" type="line"/>
      <point x="581" y="0"/>
      <point x="610" y="36"/>
      <point x="646" y="121" type="curve" smooth="yes"/>
      <point x="971" y="890" type="line" smooth="yes"/>
      <point x="1002" y="964"/>
      <point x="871" y="1049"/>
      <point x="828" y="940" type="curve" smooth="yes"/>
      <point x="510" y="166" type="line"/>
    </contour>
  </outline>
</glyph>
<glyph name="x" format="1">
  <advance width="1021"/>
  <unicode hex="0078"/>
  <outline>
    <contour>
      <point x="157" y="0" type="curve" smooth="yes"/>
      <point x="178" y="0"/>
      <point x="196" y="10"/>
      <point x="211" y="29" type="curve" smooth="yes"/>
      <point x="516" y="415" type="line"/>
      <point x="596" y="495" type="line"/>
      <point x="904" y="884" type="line" smooth="yes"/>
      <point x="914" y="897"/>
      <point x="919" y="910"/>
      <point x="919" y="924" type="curve" smooth="yes"/>
      <point x="919" y="960"/>
      <point x="884" y="991"/>
      <point x="847" y="991" type="curve" smooth="yes"/>
      <point x="827" y="991"/>
      <point x="807" y="982"/>
      <point x="791" y="961" type="curve" smooth="yes"/>
      <point x="500" y="593" type="line"/>
      <point x="424" y="514" type="line"/>
      <point x="95" y="108" type="line" smooth="yes"/>
      <point x="86" y="97"/>
      <point x="81" y="84"/>
      <point x="81" y="71" type="curve" smooth="yes"/>
      <point x="81" y="34"/>
      <point x="117" y="0"/>
    </contour>
    <contour>
      <point x="863" y="0" type="curve" smooth="yes"/>
      <point x="907" y="0"/>
      <point x="940" y="37"/>
      <point x="940" y="77" type="curve" smooth="yes"/>
      <point x="940" y="92"/>
      <point x="935" y="106"/>
      <point x="924" y="120" type="curve" smooth="yes"/>
      <point x="255" y="957" type="line" smooth="yes"/>
      <point x="236" y="981"/>
      <point x="213" y="991"/>
      <point x="191" y="991" type="curve" smooth="yes"/>
      <point x="147" y="991"/>
      <point x="114" y="955"/>
      <point x="114" y="913" type="curve" smooth="yes"/>
      <point x="114" y="898"/>
      <point x="118" y="884"/>
      <point x="130" y="869" type="curve" smooth="yes"/>
      <point x="799" y="34" type="line" smooth="yes"/>
      <point x="817" y="10"/>
      <point x="840" y="0"/>
    </contour>
  </outline>
</glyph>
<glyph name="cent" format="1">
  <advance width="1031"/>
  <unicode hex="00A2"/>
  <outline>
    <contour>
      <point x="548" y="-269" type="curve" smooth="yes"/>
      <point x="572" y="-269"/>
      <point x="596" y="-253"/>
      <point x="596" y="-219" type="curve" smooth="yes"/>
      <point x="596" y="31" type="line"/>
      <point x="499" y="32" type="line"/>
      <point x="499" y="-219" type="line" smooth="yes"/>
      <point x="499" y="-252"/>
      <point x="524" y="-269"/>
    </contour>
    <contour>
      <point x="499" y="959" type="line"/>
      <point x="596" y="960" type="line"/>
      <point x="596" y="1210" type="line" smooth="yes"/>
      <point x="596" y="1244"/>
      <point x="572" y="1260"/>
      <point x="548" y="1260" type="curve" smooth="yes"/>
      <point x="524" y="1260"/>
      <point x="499" y="1243"/>
      <point x="499" y="1210" type="curve" smooth="yes"/>
    </contour>
    <component base="c"/>
  </outline>
</glyph>
<glyph name="currency" format="1">
  <advance width="1162"/>
  <unicode hex="00A4"/>
  <outline>
    <contour>
      <point x="199" y="159" type="curve" smooth="yes"/>
      <point x="212" y="159"/>
      <point x="224" y="164"/>
      <point x="235" y="175" type="curve" smooth="yes"/>
      <point x="322" y="262" type="line"/>
      <point x="390" y="213"/>
      <point x="478" y="183"/>
      <point x="586" y="183" type="curve" smooth="yes"/>
      <point x="695" y="183"/>
      <point x="782" y="212"/>
      <point x="850" y="263" type="curve"/>
      <point x="939" y="175" type="line" smooth="yes"/>
      <point x="949" y="165"/>
      <point x="960" y="159"/>
      <point x="971" y="159" type="curve" smooth="yes"/>
      <point x="999" y="159"/>
      <point x="1025" y="182"/>
      <point x="1025" y="211" type="curve" smooth="yes"/>
      <point x="1025" y="223"/>
      <point x="1021" y="236"/>
      <point x="1010" y="247" type="curve" smooth="yes"/>
      <point x="923" y="332" type="line"/>
      <point x="983" y="408"/>
      <point x="1014" y="504"/>
      <point x="1014" y="601" type="curve" smooth="yes"/>
      <point x="1014" y="696"/>
      <point x="985" y="790"/>
      <point x="925" y="866" type="curve"/>
      <point x="1010" y="950" type="line" smooth="yes"/>
      <point x="1021" y="961"/>
      <point x="1025" y="974"/>
      <point x="1025" y="985" type="curve" smooth="yes"/>
      <point x="1025" y="1013"/>
      <point x="1001" y="1037"/>
      <point x="974" y="1037" type="curve" smooth="yes"/>
      <point x="961" y="1037"/>
      <point x="949" y="1032"/>
      <point x="938" y="1021" type="curve" smooth="yes"/>
      <point x="854" y="937" type="line"/>
      <point x="786" y="988"/>
      <point x="697" y="1020"/>
      <point x="586" y="1020" type="curve" smooth="yes"/>
      <point x="474" y="1020"/>
      <point x="386" y="988"/>
      <point x="318" y="937" type="curve"/>
      <point x="235" y="1021" type="line" smooth="yes"/>
      <point x="224" y="1032"/>
      <point x="212" y="1037"/>
      <point x="199" y="1037" type="curve" smooth="yes"/>
      <point x="172" y="1037"/>
      <point x="148" y="1013"/>
      <point x="148" y="986" type="curve" smooth="yes"/>
      <point x="148" y="973"/>
      <point x="153" y="961"/>
      <point x="164" y="950" type="curve" smooth="yes"/>
      <point x="247" y="866" type="line"/>
      <point x="187" y="790"/>
      <point x="158" y="697"/>
      <point x="158" y="601" type="curve" smooth="yes"/>
      <point x="158" y="504"/>
      <point x="188" y="408"/>
      <point x="249" y="332" type="curve"/>
      <point x="164" y="247" type="line" smooth="yes"/>
      <point x="153" y="236"/>
      <point x="148" y="224"/>
      <point x="148" y="211" type="curve" smooth="yes"/>
      <point x="148" y="183"/>
      <point x="172" y="159"/>
    </contour>
    <contour>
      <point x="586" y="285" type="curve" smooth="yes"/>
      <point x="383" y="285"/>
      <point x="281" y="443"/>
      <point x="281" y="601" type="curve" smooth="yes"/>
      <point x="281" y="758"/>
      <point x="383" y="918"/>
      <point x="586" y="918" type="curve" smooth="yes"/>
      <point x="789" y="918"/>
      <point x="891" y="758"/>
      <point x="891" y="601" type="curve" smooth="yes"/>
      <point x="891" y="443"/>
      <point x="789" y="285"/>
    </contour>
  </outline>
</glyph>
<glyph name="periodcentered" format="1">
  <advance width="584"/>
  <unicode hex="00B7"/>
  <outline>
    <contour>
      <point x="292" y="421" type="curve" smooth="yes"/>
      <point x="361" y="421"/>
      <point x="400" y="469"/>
      <point x="400" y="520" type="curve" smooth="yes"/>
      <point x="400" y="570"/>
      <point x="361" y="618"/>
      <point x="292" y="618" type="curve" smooth="yes"/>
      <point x="222" y="618"/>
      <point x="183" y="570"/>
      <point x="183" y="520" type="curve" smooth="yes"/>
      <point x="183" y="469"/>
      <point x="222" y="421"/>
    </contour>
  </outline>
</glyph>
<glyph name="onequarter" format="1">
  <advance width="1686"/>
  <unicode hex="00BC"/>
  <outline>
    <contour>
      <point x="1436" y="1" type="curve" smooth="yes"/>
      <point x="1460" y="1"/>
      <point x="1484" y="17"/>
      <point x="1484" y="49" type="curve" smooth="yes"/>
      <point x="1484" y="190" type="line"/>
      <point x="1577" y="190" type="line" smooth="yes"/>
      <point x="1604" y="190"/>
      <point x="1616" y="207"/>
      <point x="1616" y="226" type="curve" smooth="yes"/>
      <point x="1616" y="245"/>
      <point x="1602" y="262"/>
      <point x="1577" y="262" type="curve" smooth="yes"/>
      <point x="1484" y="262" type="line"/>
      <point x="1484" y="766" type="line" smooth="yes"/>
      <point x="1484" y="817"/>
      <point x="1453" y="840"/>
      <point x="1414" y="840" type="curve" smooth="yes"/>
      <point x="1383" y="840"/>
      <point x="1353" y="826"/>
      <point x="1332" y="791" type="curve"/>
      <point x="996" y="281" type="line" smooth="yes"/>
      <point x="988" y="269"/>
      <point x="984" y="257"/>
      <point x="984" y="244" type="curve" smooth="yes"/>
      <point x="984" y="215"/>
      <point x="1006" y="190"/>
      <point x="1041" y="190" type="curve" smooth="yes"/>
      <point x="1388" y="190" type="line"/>
      <point x="1388" y="49" type="line" smooth="yes"/>
      <point x="1388" y="17"/>
      <point x="1412" y="1"/>
    </contour>
    <contour>
      <point x="346" y="567" type="curve" smooth="yes"/>
      <point x="371" y="567"/>
      <point x="396" y="583"/>
      <point x="396" y="614" type="curve" smooth="yes"/>
      <point x="396" y="1331" type="line" smooth="yes"/>
      <point x="396" y="1366"/>
      <point x="373" y="1381"/>
      <point x="350" y="1381" type="curve" smooth="yes"/>
      <point x="340" y="1381"/>
      <point x="331" y="1378"/>
      <point x="322" y="1373" type="curve" smooth="yes"/>
      <point x="123" y="1247" type="line" smooth="yes"/>
      <point x="112" y="1240"/>
      <point x="106" y="1230"/>
      <point x="106" y="1217" type="curve" smooth="yes"/>
      <point x="106" y="1198"/>
      <point x="122" y="1178"/>
      <point x="145" y="1178" type="curve" smooth="yes"/>
      <point x="152" y="1178"/>
      <point x="159" y="1180"/>
      <point x="166" y="1185" type="curve" smooth="yes"/>
      <point x="298" y="1270" type="line"/>
      <point x="298" y="614" type="line" smooth="yes"/>
      <point x="298" y="583"/>
      <point x="322" y="567"/>
    </contour>
    <contour>
      <point x="425" y="34" type="curve" smooth="yes"/>
      <point x="447" y="28"/>
      <point x="471" y="35"/>
      <point x="486" y="60" type="curve" smooth="yes"/>
      <point x="1290" y="1308" type="line" smooth="yes"/>
      <point x="1295" y="1315"/>
      <point x="1298" y="1322"/>
      <point x="1299" y="1328" type="curve" smooth="yes"/>
      <point x="1307" y="1361"/>
      <point x="1285" y="1387"/>
      <point x="1257" y="1394" type="curve" smooth="yes"/>
      <point x="1235" y="1399"/>
      <point x="1209" y="1392"/>
      <point x="1194" y="1367" type="curve" smooth="yes"/>
      <point x="393" y="119" type="line" smooth="yes"/>
      <point x="388" y="113"/>
      <point x="385" y="105"/>
      <point x="384" y="99" type="curve" smooth="yes"/>
      <point x="376" y="66"/>
      <point x="398" y="40"/>
    </contour>
    <contour>
      <point x="1074" y="262" type="line"/>
      <point x="1388" y="745" type="line"/>
      <point x="1388" y="262" type="line"/>
    </contour>
  </outline>
</glyph>
<glyph name="onehalf" format="1">
  <advance width="1868"/>
  <unicode hex="00BD"/>
  <outline>
    <contour>
      <point x="1094" y="23"/>
      <point x="1115" y="0"/>
      <point x="1166" y="0" type="curve" smooth="yes"/>
      <point x="1598" y="0" type="line" smooth="yes"/>
      <point x="1626" y="0"/>
      <point x="1640" y="21"/>
      <point x="1640" y="42" type="curve" smooth="yes"/>
      <point x="1640" y="63"/>
      <point x="1625" y="85"/>
      <point x="1598" y="85" type="curve" smooth="yes"/>
      <point x="1215" y="85" type="line"/>
      <point x="1364" y="218"/>
      <point x="1631" y="452"/>
      <point x="1631" y="637" type="curve" smooth="yes"/>
      <point x="1631" y="769"/>
      <point x="1513" y="837"/>
      <point x="1380" y="837" type="curve" smooth="yes"/>
      <point x="1284" y="837"/>
      <point x="1143" y="778"/>
      <point x="1143" y="727" type="curve" smooth="yes"/>
      <point x="1143" y="708"/>
      <point x="1158" y="692"/>
      <point x="1181" y="692" type="curve" smooth="yes"/>
      <point x="1192" y="692"/>
      <point x="1203" y="695"/>
      <point x="1214" y="702" type="curve" smooth="yes"/>
      <point x="1253" y="725"/>
      <point x="1313" y="751"/>
      <point x="1373" y="751" type="curve" smooth="yes"/>
      <point x="1449" y="751"/>
      <point x="1524" y="709"/>
      <point x="1524" y="629" type="curve" smooth="yes"/>
      <point x="1524" y="486"/>
      <point x="1250" y="239"/>
      <point x="1134" y="127" type="curve" smooth="yes"/>
      <point x="1109" y="103"/>
      <point x="1094" y="77"/>
      <point x="1094" y="52" type="curve" smooth="yes"/>
    </contour>
    <contour>
      <point x="367" y="567" type="curve" smooth="yes"/>
      <point x="392" y="567"/>
      <point x="417" y="583"/>
      <point x="417" y="614" type="curve" smooth="yes"/>
      <point x="417" y="1331" type="line" smooth="yes"/>
      <point x="417" y="1366"/>
      <point x="394" y="1381"/>
      <point x="371" y="1381" type="curve" smooth="yes"/>
      <point x="361" y="1381"/>
      <point x="352" y="1378"/>
      <point x="343" y="1373" type="curve" smooth="yes"/>
      <point x="144" y="1247" type="line" smooth="yes"/>
      <point x="133" y="1240"/>
      <point x="127" y="1230"/>
      <point x="127" y="1217" type="curve" smooth="yes"/>
      <point x="127" y="1198"/>
      <point x="143" y="1178"/>
      <point x="166" y="1178" type="curve" smooth="yes"/>
      <point x="173" y="1178"/>
      <point x="180" y="1180"/>
      <point x="187" y="1185" type="curve" smooth="yes"/>
      <point x="319" y="1270" type="line"/>
      <point x="319" y="614" type="line" smooth="yes"/>
      <point x="319" y="583"/>
      <point x="343" y="567"/>
    </contour>
    <contour>
      <point x="446" y="34" type="curve" smooth="yes"/>
      <point x="468" y="28"/>
      <point x="492" y="35"/>
      <point x="507" y="60" type="curve" smooth="yes"/>
      <point x="1311" y="1308" type="line" smooth="yes"/>
      <point x="1316" y="1315"/>
      <point x="1319" y="1322"/>
      <point x="1320" y="1328" type="curve" smooth="yes"/>
      <point x="1328" y="1361"/>
      <point x="1306" y="1387"/>
      <point x="1278" y="1394" type="curve" smooth="yes"/>
      <point x="1256" y="1399"/>
      <point x="1230" y="1392"/>
      <point x="1215" y="1367" type="curve" smooth="yes"/>
      <point x="414" y="119" type="line" smooth="yes"/>
      <point x="409" y="113"/>
      <point x="406" y="105"/>
      <point x="405" y="99" type="curve" smooth="yes"/>
      <point x="397" y="66"/>
      <point x="419" y="40"/>
    </contour>
  </outline>
</glyph>
<glyph name="tilde" format="1">
  <advance width="569"/>
  <unicode hex="02DC"/>
  <outline>
    <contour>
      <point x="-29.9048" y="1183.19"/>
      <point x="45.7025" y="1161.13"/>
      <point x="84" y="1209" type="curve" smooth="yes"/>
      <point x="107" y="1237"/>
      <point x="131" y="1249"/>
      <point x="160" y="1249" type="curve" smooth="yes"/>
      <point x="230" y="1249"/>
      <point x="318" y="1180"/>
      <point x="397" y="1180" type="curve" smooth="yes"/>
      <point x="488" y="1180"/>
      <point x="547" y="1239"/>
      <point x="568" y="1314" type="curve"/>
      <point x="574.667" y="1360.67"/>
      <point x="560.059" y="1368"/>
      <point x="533" y="1368" type="curve" smooth="yes"/>
      <point x="494" y="1368"/>
      <point x="459" y="1297"/>
      <point x="412" y="1297" type="curve" smooth="yes"/>
      <point x="346" y="1297"/>
      <point x="260" y="1363"/>
      <point x="168" y="1363" type="curve" smooth="yes"/>
      <point x="77" y="1363"/>
      <point x="23" y="1310"/>
      <point x="-5" y="1233" type="curve"/>
    </contour>
    <contour>
      <point x="293" y="1040" type="move" name="_top"/>
    </contour>
  </outline>
</glyph>
<glyph name="product" format="1">
  <advance width="1461"/>
  <unicode hex="220F"/>
  <outline>
    <contour>
      <point x="360" y="0" type="curve" smooth="yes"/>
      <point x="399" y="0"/>
      <point x="439" y="25"/>
      <point x="439" y="77" type="curve" smooth="yes"/>
      <point x="439" y="1289" type="line"/>
      <point x="1020" y="1289" type="line"/>
      <point x="1020" y="77" type="line" smooth="yes"/>
      <point x="1020" y="25"/>
      <point x="1059" y="0"/>
      <point x="1099" y="0" type="curve" smooth="yes"/>
      <point x="1138" y="0"/>
      <point x="1178" y="25"/>
      <point x="1178" y="77" type="curve" smooth="yes"/>
      <point x="1179" y="1289" type="line"/>
      <point x="1322" y="1289" type="line" smooth="yes"/>
      <point x="1365" y="1289"/>
      <point x="1386" y="1324"/>
      <point x="1386" y="1359" type="curve" smooth="yes"/>
      <point x="1386" y="1395"/>
      <point x="1365" y="1430"/>
      <point x="1322" y="1430" type="curve" smooth="yes"/>
      <point x="135" y="1430" type="line" smooth="yes"/>
      <point x="87" y="1430"/>
      <point x="63" y="1394"/>
      <point x="63" y="1359" type="curve" smooth="yes"/>
      <point x="63" y="1324"/>
      <point x="87" y="1289"/>
      <point x="135" y="1289" type="curve" smooth="yes"/>
      <point x="281" y="1289" type="line"/>
      <point x="281" y="77" type="line" smooth="yes"/>
      <point x="281" y="25"/>
      <point x="320" y="0"/>
    </contour>
  </outline>
</glyph>
<glyph name="lessequal" format="1">
  <advance width="1174"/>
  <unicode hex="2264"/>
  <outline>
    <contour>
      <point x="1031" y="218" type="curve" smooth="yes"/>
      <point x="1068" y="218"/>
      <point x="1093" y="252"/>
      <point x="1093" y="285" type="curve" smooth="yes"/>
      <point x="1093" y="308"/>
      <point x="1083" y="328"/>
      <point x="1055" y="340" type="curve" smooth="yes"/>
      <point x="251" y="697" type="line"/>
      <point x="1053" y="1035" type="line" smooth="yes"/>
      <point x="1081" y="1047"/>
      <point x="1093" y="1070"/>
      <point x="1093" y="1091" type="curve" smooth="yes"/>
      <point x="1093" y="1126"/>
      <point x="1066" y="1160"/>
      <point x="1027" y="1160" type="curve" smooth="yes"/>
      <point x="1018" y="1160"/>
      <point x="1009" y="1158"/>
      <point x="1000" y="1154" type="curve" smooth="yes"/>
      <point x="113" y="776" type="line" smooth="yes"/>
      <point x="70" y="757"/>
      <point x="51" y="728"/>
      <point x="51" y="698" type="curve" smooth="yes"/>
      <point x="51" y="667"/>
      <point x="69" y="639"/>
      <point x="110" y="622" type="curve"/>
      <point x="1002" y="225" type="line"/>
      <point x="1011" y="220"/>
      <point x="1021" y="218"/>
    </contour>
    <contour>
      <point x="158" y="12" type="curve" smooth="yes"/>
      <point x="1006" y="12" type="line" smooth="yes"/>
      <point x="1042" y="12"/>
      <point x="1061" y="40"/>
      <point x="1061" y="67" type="curve" smooth="yes"/>
      <point x="1061" y="95"/>
      <point x="1043" y="122"/>
      <point x="1006" y="122" type="curve" smooth="yes"/>
      <point x="158" y="122" type="line" smooth="yes"/>
      <point x="121" y="122"/>
      <point x="103" y="95"/>
      <point x="103" y="67" type="curve" smooth="yes"/>
      <point x="103" y="40"/>
      <point x="122" y="12"/>
    </contour>
  </outline>
</glyph>
